<svg width="63" height="40" viewBox="0 0 63 40" fill="none" xmlns="http://www.w3.org/2000/svg">
<path fill-rule="evenodd" clip-rule="evenodd" d="M51.1574 32.1201H46.253C45.9957 32.0975 45.7365 32.1296 45.4924 32.2145C45.2483 32.2993 45.0249 32.4349 44.8367 32.6124C44.6484 32.7899 44.4997 33.0052 44.4002 33.2444C44.3007 33.4835 44.2527 33.741 44.2593 34.0001V35.8801C44.2593 36.1251 44.308 36.3677 44.4027 36.5936C44.4973 36.8195 44.636 37.0241 44.8106 37.1955C44.9851 37.3669 45.1921 37.5016 45.4192 37.5917C45.6464 37.6817 45.8892 37.7254 46.1334 37.7201H51.0378C51.5243 37.7201 51.9908 37.5262 52.3348 37.1812C52.6787 36.8361 52.872 36.3681 52.872 35.8801V34.0001C52.8774 33.7517 52.8327 33.5048 52.7404 33.2742C52.6482 33.0437 52.5103 32.8342 52.3352 32.6586C52.1601 32.4829 51.9513 32.3446 51.7215 32.2521C51.4917 32.1595 51.2455 32.1146 50.9979 32.1201H51.1574ZM51.3169 35.8801C51.3169 35.9225 51.3001 35.9632 51.2702 35.9932C51.2403 36.0232 51.1997 36.0401 51.1574 36.0401H46.253C46.2301 36.0536 46.2042 36.0611 46.1776 36.062C46.151 36.0629 46.1247 36.0571 46.1009 36.0452C46.0771 36.0333 46.0567 36.0156 46.0415 35.9937C46.0263 35.9719 46.0167 35.9466 46.0138 35.9201V34.0001C46.0138 33.8801 46.0935 33.8401 46.2131 33.8401H51.1176C51.1973 33.8401 51.2771 33.8401 51.2771 34.0001V35.8801H51.3169ZM42.9435 33.8801C42.8638 33.8001 42.784 33.8001 42.7441 33.8801L42.1859 34.8001C42.1649 34.8366 42.1539 34.878 42.1539 34.9201C42.1539 34.9622 42.1649 35.0036 42.1859 35.0401L42.7441 36.0001H42.9036L43.4619 35.0401C43.4829 35.0036 43.4939 34.9622 43.4939 34.9201C43.4939 34.878 43.4829 34.8366 43.4619 34.8001L42.9036 33.8801H42.9435ZM60.8467 32.1201H53.9884V40.0001H55.6631V37.7201H60.8467C61.3262 37.7096 61.7825 37.5112 62.1179 37.1672C62.4533 36.8233 62.6411 36.3612 62.641 35.8801V34.0001C62.6463 33.7584 62.604 33.5181 62.5167 33.2928C62.4294 33.0676 62.2987 32.8617 62.1321 32.6872C61.9655 32.5126 61.7662 32.3726 61.5456 32.2753C61.3251 32.178 61.0876 32.1253 60.8467 32.1201ZM60.9663 35.8801C60.9671 35.9049 60.9621 35.9296 60.9517 35.9522C60.9413 35.9748 60.9259 35.9946 60.9065 36.0101C60.8872 36.0256 60.8645 36.0364 60.8402 36.0416C60.816 36.0468 60.7909 36.0463 60.7669 36.0401H55.5834V33.8801H60.7669C60.8467 33.8801 60.9264 33.8801 60.9264 34.0401V35.9201L60.9663 35.8801ZM56.7397 30.4001H61.4448C61.7487 30.4008 62.0415 30.2854 62.2636 30.0773C62.4858 29.8693 62.6207 29.5843 62.641 29.2801V15.0801H56.7397V30.4001ZM23.6448 34.0001V35.8801C23.6447 36.1251 23.6934 36.3677 23.7881 36.5936C23.8828 36.8195 24.0214 37.0241 24.196 37.1955C24.3706 37.3669 24.5775 37.5016 24.8047 37.5917C25.0318 37.6817 25.2746 37.7254 25.5188 37.7201H31.6195V36.0001H25.5188C25.4897 35.9933 25.463 35.9785 25.4419 35.9573C25.4207 35.9361 25.4059 35.9093 25.3992 35.8801V34.0001C25.3992 33.8801 25.3992 33.8401 25.5587 33.8401H31.6593V32.1201H25.5188C25.2746 32.12 25.0328 32.1689 24.8076 32.2639C24.5824 32.3588 24.3784 32.4979 24.2076 32.6731C24.0367 32.8482 23.9025 33.0558 23.8127 33.2837C23.7229 33.5115 23.6793 33.7551 23.6846 34.0001H23.6448ZM43.2226 30.4001H54.3872V27.2001H47.8479V24.4001H54.3872V21.1201H47.8479V18.3201H54.3872V15.1201H42.0264V29.2001C42.0264 29.5183 42.1524 29.8236 42.3768 30.0486C42.6011 30.2737 42.9054 30.4001 43.2226 30.4001Z" fill="white"/>
<path fill-rule="evenodd" clip-rule="evenodd" d="M23.6848 19.8801V30.4001H29.586V26.4001H31.3803L34.1715 30.4001H40.6708L37.3215 25.4401L39.6341 23.1201V15.1201H33.7727L29.586 17.2001V15.6801C29.586 15.3601 29.3069 15.0801 28.948 15.0801H27.3531L36.4841 2.80008L47.4493 12.6001L53.0316 6.48008L60.2088 12.6001H62.6012L53.0316 4.12008L46.6518 9.44008L37.2417 1.20008L36.0455 0.0800781L16.348 19.7601L14.0753 15.0801H15.9493L10.1677 4.12008L4.50564 15.0801H6.29995L2.4721 22.8001H4.8645L0.398682 32.0801L21.6113 37.6801L17.4246 28.2001L23.6848 19.8001V19.8801ZM29.586 20.5601L33.7727 18.4001V22.8001H29.586V20.5601Z" fill="white"/>
<path fill-rule="evenodd" clip-rule="evenodd" d="M39.4747 32.1201H34.4507C33.9712 32.1409 33.519 32.3494 33.191 32.7009C32.863 33.0524 32.6854 33.5188 32.6963 34.0001V35.8801C32.6962 36.3613 32.8839 36.8233 33.2193 37.1673C33.5547 37.5112 34.0111 37.7097 34.4906 37.7201H39.4747C39.9543 37.7097 40.4106 37.5112 40.746 37.1673C41.0814 36.8233 41.2692 36.3613 41.2691 35.8801V34.0001C41.2744 33.7551 41.2308 33.5116 41.141 33.2837C41.0513 33.0558 40.917 32.8482 40.7461 32.6731C40.5753 32.498 40.3713 32.3589 40.1461 32.2639C39.9209 32.1689 39.6791 32.1201 39.4349 32.1201H39.4747ZM39.5944 35.8801C39.5944 35.9011 39.5902 35.9219 39.5822 35.9413C39.5742 35.9608 39.5625 35.9784 39.5477 35.9933C39.5328 36.0081 39.5153 36.0199 39.4959 36.0279C39.4766 36.036 39.4558 36.0401 39.4349 36.0401H34.4507C34.4145 36.0413 34.379 36.03 34.35 36.0082C34.321 35.9864 34.3002 35.9553 34.2912 35.9201V34.0001C34.2912 33.8801 34.4108 33.8401 34.4906 33.8401H39.4747C39.4747 33.8401 39.5944 33.8401 39.5944 34.0001V35.8801Z" fill="white"/>
</svg>
