<?xml version="1.0" encoding="utf-8"?>
<!-- Generator: Adobe Illustrator 21.0.0, SVG Export Plug-In . SVG Version: 6.00 Build 0)  -->
<svg version="1.1" id="Layer_1" xmlns="http://www.w3.org/2000/svg" xmlns:xlink="http://www.w3.org/1999/xlink" x="0px" y="0px"
	 viewBox="0 0 226 52" style="enable-background:new 0 0 226 52;" xml:space="preserve">
<style type="text/css">
	.st0{fill:#FFFFFF;}
</style>
<title>logo</title>
<desc>Created with Sketch.</desc>
<g id="Symbols">
	<g id="header" transform="translate(-55.000000, -25.000000)">
		<g id="logo" transform="translate(55.000000, 25.000000)">
			<path id="Shape" class="st0" d="M10.5,29.1c0.1,0,0.2,0,0.2-0.1c0,0,0,0,0.1,0l0,0l0,0c-0.7,0.2-1.4,0.5-2.1,0.7
				c-2.9,1.1-5.8,2.4-8.5,3.7c0.1,0.7,0.2,1.4,0.3,2c1.1-0.7,2.3-1.3,3.5-2c1.8-1,3.6-1.9,5.4-2.8c1.8-0.9,3.7-1.8,5.6-2.6
				c0.4-0.2,0.7-0.3,1.1-0.5c0.1,0,0.1-0.1,0.3-0.1l0,0l0,0c-0.1,0.1-0.2,0.1-0.3,0.2c-1.2,0.7-2.5,1.5-3.6,2.3
				c-0.6,0.4-1.3,0.9-1.9,1.4c-0.6,0.5-1.3,0.9-2,1.4c-0.8,0.6-1.6,1.2-2.4,1.9c-0.7,0.6-1.5,1.2-2.2,1.8C3.3,37,2.8,37.5,2.3,38
				c-0.4,0.3-0.7,0.6-1,1c0.3,0.9,0.6,1.8,1,2.7c0.2-0.2,0.4-0.5,0.7-0.7c0.5-0.6,1.1-1.2,1.6-1.7c0.6-0.6,1.1-1.1,1.7-1.7
				c0.8-0.7,1.5-1.5,2.3-2.2c0.7-0.7,1.5-1.3,2.2-2c0.5-0.5,1-0.9,1.5-1.3c0.7-0.6,1.3-1.1,2-1.7c0.7-0.6,1.3-1.1,2-1.7
				c0.7-0.6,1.5-1.2,2.2-1.7c0.8-0.6,1.5-1.2,2.3-1.7c0.2-0.1,0.4-0.2,0.5-0.3c0,0.1-0.1,0.1-0.1,0.1c-0.4,0.4-0.9,0.8-1.3,1.3
				c-0.6,0.6-1.2,1.2-1.8,1.8c-0.4,0.5-0.8,0.9-1.3,1.4c-0.8,0.9-1.6,1.8-2.3,2.7c-0.8,0.9-1.5,1.9-2.3,2.9c-1,1.3-1.9,2.6-2.8,3.9
				c-1.3,2-2.5,4-3.6,6.2c-0.3,0.6-0.6,1.2-0.9,1.8c0.6,1.1,1.2,2,1.8,2.8c0.3-0.6,0.6-1.3,0.8-2c1.3-2.8,2.8-5.5,4.4-8.2
				c1.3-2.1,2.6-4.1,4-6.1c1.1-1.6,2.3-3.2,3.5-4.8c0.8-1,1.5-2,2.3-2.9c0.7-0.8,1.3-1.7,2-2.5c0.8-0.9,1.6-1.9,2.5-2.8
				c0,0.1,0,0.1,0,0.1c-0.1,0.2-0.2,0.3-0.4,0.5c-1,1.5-2,3-2.9,4.6c-1,1.7-1.8,3.4-2.7,5.1c-0.9,1.9-1.7,3.8-2.5,5.8
				c-1,2.6-1.8,5.2-2.4,7.8c-0.6,2.4-1,4.7-1.2,7.1c0,0.1,0,0.3,0,0.4c1.3,0,2.7-0.1,4.3-0.3c-0.2-1.8-0.2-3.7-0.1-5.5
				c0.2-2.6,0.6-5.3,1.3-7.8c0.9-3.6,2.2-7,3.8-10.4c1-2.1,2.1-4.2,3.2-6.2c0.8-1.4,1.6-2.8,2.5-4.1c0.9-1.4,1.8-2.8,2.8-4.1l0,0
				l0,0c0.1,0.1,0,0.1,0,0.2c-0.2,0.5-0.5,1-0.7,1.5c-0.8,1.7-1.5,3.5-2.2,5.3c-1,2.7-1.8,5.4-2.3,8.2c-0.4,2.3-0.7,4.6-0.8,6.9
				c-0.1,3,0.1,6,0.8,8.9c0.4,1.7,0.9,3.4,1.6,5.1c1.2-0.5,2.5-1,3.6-1.6c-0.1-0.1-0.1-0.2-0.1-0.2c-1-1.7-1.7-3.5-2.3-5.3
				c-0.6-2.1-1-4.2-1.1-6.4c-0.1-2-0.1-3.9,0.1-5.9c0.2-2.1,0.6-4.1,1.1-6.1c0.7-2.8,1.7-5.6,2.9-8.3c0.9-2.1,1.9-4.1,3-6.1
				c0.7-1.3,1.5-2.7,2.3-4c0.5-0.8,1-1.6,1.5-2.4c0.1,0.1,0,0.1,0,0.2C39.2,3.6,39,3.8,39,4c-0.5,1.2-1,2.4-1.4,3.6
				c-0.6,1.6-1,3.1-1.4,4.7c-0.5,1.8-0.8,3.7-1.1,5.5c-0.2,1.7-0.4,3.4-0.4,5.1c0,1.7,0.1,3.5,0.4,5.2c0.4,2.2,0.9,4.4,1.8,6.6
				c0.6,1.4,1.3,2.8,2.1,4c0.4,0.6,0.8,1.2,1.2,1.7C48.5,26.7,40.8,0,40.8,0s-30,7.4-38.2,21.3c-2,3.4-2.7,7-2.6,10.4
				C3.5,30.8,7,29.9,10.5,29.1z"/>
			<g id="Group" transform="translate(53.000000, 16.000000)">
				<path id="Shape_1_" class="st0" d="M14.4,4.1l-1.6,1.1c-1.3-1.5-3.2-2.3-5.5-2.3C5.1,2.9,3,3.7,3,5.8c0,2.1,2,2.6,4.7,3.2
					c3.6,0.8,7.1,1.7,7.1,5.2c0,3.2-2.9,5.2-7.1,5.2C4.1,19.4,1.5,18,0,16l1.8-1.1c1.3,1.9,3.6,2.7,6,2.7c2.8,0,4.8-1.2,4.8-3.4
					c0-2.3-2.3-2.7-5.6-3.4c-3-0.6-6.1-1.6-6.1-4.8c0-3.1,2.9-4.8,6.6-4.8C10.3,1.2,12.8,2.3,14.4,4.1z"/>
				<path id="Shape_2_" class="st0" d="M31,16.1c0,1.1,0.4,1.7,1.3,1.7c0.3,0,0.7-0.1,0.9-0.2l0.3,1.4c-0.5,0.2-1.1,0.2-1.5,0.2
					c-1.4,0-2.7-0.7-2.9-2.5c-1.5,1.9-3.6,2.6-5.6,2.6c-4.4,0-7-3.1-7-7.1c0-4,2.7-7.1,7-7.1c2.1,0,4.1,0.8,5.6,2.8V5.5H31V16.1z
					 M23.7,6.8c-3.5,0-5.2,2.4-5.2,5.5c0,3,1.7,5.5,5.2,5.5s5.4-2.5,5.4-5.5C29.1,9.2,27.2,6.8,23.7,6.8z"/>
				<path id="Shape_3_" class="st0" d="M46.3,21.8c-1.4,1.5-3.6,2.1-6.1,2.1c-2.5,0-4.5-0.6-6.2-1.7l1.1-1.4
					c1.4,0.9,3.1,1.5,5.1,1.5c3.2,0,5.7-1.5,5.7-5v-1.7c-1.2,1.9-3.5,2.8-5.8,2.8c-4,0-6.8-2.8-6.8-6.6c0-3.9,3-6.7,7-6.7
					c2.3,0,4.4,0.9,5.6,2.8V5.5h1.9V17C47.9,19.1,47.5,20.6,46.3,21.8z M40.6,6.8c-3.6,0-5.2,2.3-5.2,5c0,2.7,1.7,5,5.2,5
					c3.5,0,5.4-2.3,5.4-5C46,9,44.2,6.8,40.6,6.8z"/>
				<path id="Shape_4_" class="st0" d="M63.8,12.6H51.7c0.1,3.2,2.3,5.1,5.5,5.1c1.8,0,3.3-0.6,4.6-1.8l1.3,1.2
					c-1.5,1.5-3.4,2.3-5.9,2.3c-4.7,0-7.5-3-7.5-7.1c0-4,2.8-7.1,7.2-7.1c4.3,0,7,3,7,6.7C63.9,12.2,63.9,12.5,63.8,12.6z
					 M61.9,11.2c-0.3-2.9-2.5-4.4-5.1-4.4c-2.9,0-4.9,1.9-5.1,4.4H61.9z"/>
				<path id="Shape_5_" class="st0" d="M66,0.2h1.9V16c0,1.3,0.5,1.7,1.5,1.7c0.6,0,1.1-0.2,1.3-0.3l0.5,1.5
					c-0.3,0.2-0.9,0.4-1.8,0.4c-1.1,0-2.1-0.3-2.7-1.1C66.1,17.7,66,17,66,16V0.2z"/>
				<path id="Shape_6_" class="st0" d="M82.2,15.6c-1.3,1.8-3,2.8-5.4,2.8c-3.2,0-5.4-1.8-5.4-5.2V5.5h1.9v7.4c0,1.8,0.6,4,3.7,4
					c3,0,5.2-2,5.2-4.8V5.5H84v12.2c0,1.8-0.4,3.1-1.4,4.2c-1.2,1.2-3.1,2-5.7,2c-2.4,0-4.2-0.7-5.7-1.7l1.1-1.4
					c1.4,1.1,3.1,1.5,4.7,1.5c2.7,0,5.2-1.1,5.2-4.4V15.6z"/>
				<polygon id="Shape_7_" class="st0" points="105.6,19 105.6,10.6 94,10.6 94,19 92,19 92,1.5 94,1.5 94,8.8 105.6,8.8 105.6,1.5 
					107.6,1.5 107.6,19 				"/>
				<path id="Shape_8_" class="st0" d="M124,12.6h-12.2c0.1,3.2,2.3,5.1,5.5,5.1c1.8,0,3.3-0.6,4.6-1.8l1.3,1.2
					c-1.5,1.5-3.4,2.3-5.9,2.3c-4.7,0-7.5-3-7.5-7.1c0-4,2.8-7.1,7.2-7.1c4.3,0,7,3,7,6.7C124.1,12.2,124,12.5,124,12.6z
					 M122.1,11.2c-0.3-2.9-2.5-4.4-5.1-4.4c-2.9,0-4.9,1.9-5.1,4.4H122.1z"/>
				<path id="Shape_9_" class="st0" d="M140.5,16.1c0,1.1,0.4,1.7,1.3,1.7c0.3,0,0.7-0.1,0.9-0.2l0.3,1.4c-0.5,0.2-1.1,0.2-1.5,0.2
					c-1.4,0-2.7-0.7-2.9-2.5c-1.5,1.9-3.6,2.6-5.6,2.6c-4.4,0-7-3.1-7-7.1c0-4,2.7-7.1,7-7.1c2.1,0,4.1,0.8,5.6,2.8V5.5h1.9V16.1z
					 M133.2,6.8c-3.5,0-5.2,2.4-5.2,5.5c0,3,1.7,5.5,5.2,5.5c3.5,0,5.4-2.5,5.4-5.5C138.6,9.2,136.7,6.8,133.2,6.8z"/>
				<path id="Shape_10_" class="st0" d="M144.3,0.2h1.9V16c0,1.3,0.5,1.7,1.5,1.7c0.6,0,1.1-0.2,1.3-0.3l0.5,1.5
					c-0.3,0.2-0.9,0.4-1.8,0.4c-1.1,0-2.1-0.3-2.7-1.1c-0.4-0.5-0.6-1.3-0.6-2.2V0.2z"/>
				<path id="Shape_11_" class="st0" d="M158.5,18.5c-0.8,0.6-1.8,0.8-3,0.8c-1.7,0-3-0.5-3.8-1.7c-0.4-0.6-0.6-1.3-0.6-2.5V7h-2.7
					V5.5h2.7v-4h1.9v4h5.1V7H153v8.1c0,1.8,0.8,2.7,2.6,2.7c1,0,1.6-0.3,2-0.6L158.5,18.5z"/>
				<path id="Shape_12_" class="st0" d="M160.2,19V0.2h1.9v7.7c1.3-1.8,3-2.8,5.4-2.8c3.2,0,5.4,1.8,5.4,5.2V19H171v-8.3
					c0-1.8-0.6-4-3.7-4c-3,0-5.2,2-5.2,4.8V19L160.2,19L160.2,19z"/>
			</g>
		</g>
	</g>
</g>
</svg>
