<svg width="140" height="40" viewBox="0 0 140 40" fill="none" xmlns="http://www.w3.org/2000/svg">
<path d="M1.1167 28.0615H2.71793V32.7548H8.09216V28.0615H9.69339V39.2701H8.09216V34.172H2.71793V39.2701H1.1167V28.0615Z" fill="white"/>
<path d="M18.7853 38.9385C18.2148 39.1409 17.5522 39.4722 16.1903 39.4722C13.2823 39.4722 11.9387 37.7053 11.9387 35.0366C11.9387 32.6072 13.4663 30.8955 15.7853 30.8955C18.5093 30.8955 19.3927 32.8832 19.3927 35.5151H13.5584C13.5584 37.1348 14.8283 38.2391 16.2639 38.2391C17.2577 38.2391 18.4172 37.7237 18.7853 37.4108V38.9385ZM17.8099 34.3924C17.8099 33.1409 17.0737 32.1102 15.7669 32.1102C14.2945 32.1102 13.6688 33.325 13.5584 34.3924H17.8099Z" fill="white"/>
<path d="M21.8221 31.6504C22.5767 31.2087 23.4785 30.8774 24.5276 30.8774C26.865 30.8774 27.8221 32.037 27.8221 34.2639V37.6504C27.8221 38.5891 27.8589 39.0124 27.8957 39.2517H26.4785V38.1842H26.4417C26.092 38.6811 25.2822 39.4357 23.9019 39.4357C22.135 39.4357 20.9019 38.6627 20.9019 36.8774C20.9019 34.8161 23.1473 34.1719 24.7117 34.1719C25.3006 34.1719 25.7239 34.1719 26.3129 34.2087C26.3129 32.7916 25.7976 32.0738 24.2884 32.0738C23.4417 32.0738 22.5215 32.3866 21.9141 32.902L21.8221 31.6504ZM26.2945 35.3682C25.9816 35.3682 25.6503 35.3314 25.3374 35.3314C24.5092 35.3314 22.4847 35.4603 22.4847 36.9143C22.4847 37.7793 23.3129 38.2394 24.0123 38.2394C25.5031 38.2394 26.2945 37.3008 26.2945 36.086V35.3682Z" fill="white"/>
<path d="M32.0737 27.2148H30.5645V39.2701H32.0737V27.2148Z" fill="white"/>
<path d="M39.1963 32.2945H37.0245V36.7853C37.0245 37.7424 37.595 38.2393 38.2944 38.2393C38.7546 38.2393 39.1043 38.0921 39.3251 37.9448V39.2332C38.9938 39.3252 38.5153 39.454 38.0368 39.454C36.4723 39.454 35.5153 38.7178 35.5153 37.0798V32.2945H33.6748V31.0798H35.5153V29.1841L37.0245 28.7056V31.0798H39.1963V32.2945Z" fill="white"/>
<path d="M41.092 27.2148H42.6012V32.2394H42.6381C43.1902 31.3744 44.1289 30.8774 45.27 30.8774C47.3865 30.8774 48.3436 32.2026 48.3436 34.3928V39.2701H46.8344V35.0185C46.8344 33.1044 46.4111 32.1658 45.1043 32.0921C43.3927 32.0921 42.6197 33.4725 42.6197 35.4602V39.2517H41.1104V27.2148" fill="white"/>
<path d="M56.1105 32.4599C55.54 32.2207 54.951 32.1102 54.4725 32.1102C52.7792 32.1102 51.8406 33.6194 51.8406 35.1839C51.8406 36.6378 52.632 38.2575 54.5645 38.2575C55.0798 38.2575 55.724 38.0918 56.1841 37.7974L56.2946 39.1409C55.6688 39.4354 54.951 39.4722 54.3989 39.4722C51.9326 39.4722 50.2209 37.5213 50.2209 35.1839C50.2209 32.6992 51.8958 30.8955 54.3989 30.8955C55.0062 30.8955 55.7976 31.0427 56.2394 31.2084L56.1105 32.4599Z" fill="white"/>
<path d="M58.4296 31.6504C59.1842 31.2087 60.0861 30.8774 61.1351 30.8774C63.4726 30.8774 64.4296 32.037 64.4296 34.2639V37.6504C64.4296 38.5891 64.4664 39.0124 64.5032 39.2517H63.0677V38.1842H63.0308C62.6812 38.6811 61.8713 39.4357 60.491 39.4357C58.7241 39.4357 57.491 38.6627 57.491 36.8774C57.491 34.8161 59.7364 34.1719 61.3008 34.1719C61.8897 34.1719 62.3131 34.1719 62.902 34.2087C62.902 32.7916 62.3867 32.0738 60.8775 32.0738C60.0308 32.0738 59.1106 32.3866 58.5032 32.902L58.4296 31.6504ZM62.9204 35.3682C62.6075 35.3682 62.2762 35.3314 61.9634 35.3314C61.1351 35.3314 59.1106 35.4603 59.1106 36.9143C59.1106 37.7793 59.9388 38.2394 60.6382 38.2394C62.129 38.2394 62.9204 37.3008 62.9204 36.086V35.3682Z" fill="white"/>
<path d="M66.9695 31.0796H68.3867V32.3495H68.4235C68.8284 31.5029 69.6934 30.8955 70.5584 30.8955C71.0002 30.8955 71.2394 30.9507 71.5523 31.0059V32.3495C71.2762 32.2391 70.9818 32.2023 70.7241 32.2023C69.3805 32.2023 68.4971 33.4906 68.4971 35.5519V39.2881H66.9879V31.0796" fill="white"/>
<path d="M79.5214 38.9385C78.9509 39.1409 78.2883 39.4722 76.9263 39.4722C74.0184 39.4722 72.6748 37.7053 72.6748 35.0366C72.6748 32.6072 74.2024 30.8955 76.5214 30.8955C79.2454 30.8955 80.1288 32.8832 80.1288 35.5151H74.2944C74.2944 37.1348 75.5644 38.2391 77 38.2391C77.9938 38.2391 79.1533 37.7237 79.5214 37.4108V38.9385ZM78.5276 34.3924C78.5276 33.1409 77.7914 32.1102 76.4846 32.1102C75.0122 32.1102 74.3865 33.325 74.276 34.3924H78.5276Z" fill="white"/>
<path d="M1.11664 16.2821C2.53382 17.0551 4.66879 17.7913 7.20866 17.7913C8.95713 17.7913 10.9817 17.4416 10.9817 15.8588C10.9817 12.1594 0.527682 14.276 0.527682 6.74839C0.527682 1.76066 5.12891 0.490723 9.28842 0.490723C11.9755 0.490723 14.0369 0.950845 15.6197 1.44778L15.1044 5.88336C13.6504 5.276 11.8099 4.66864 9.73014 4.66864C8.33136 4.66864 6.17799 4.76066 6.17799 6.56434C6.17799 9.82201 16.6872 8.14716 16.6872 15.3803C16.6872 20.7545 11.8283 21.9692 7.22707 21.9692C4.44793 21.9692 1.87124 21.4171 0.509277 20.957L1.11664 16.2821ZM35.5154 0.877226H18.1228V5.07354H24.0676V21.5827H29.589V5.07354H35.5338V0.877226H35.5154ZM133.282 0.877226L129.27 9.17784L125.203 0.877226H118.853L126.509 13.7791V21.5827H132.031V13.7791L139.632 0.877226H133.282ZM59.313 0.877226V21.5827H64.632V10.411L73.6504 21.5643H78.1596V18.4539L63.859 0.858821L59.313 0.877226ZM78.1412 11.3496V0.858821H69.6933L78.1412 11.3496ZM106.89 13.2085H115.595V9.08581H106.89V4.94471H116.46V0.877226H101.239V21.5827H116.791V17.46H106.908L106.89 13.2085ZM88.8528 0.877226H83.1841V21.5827H97.8896V17.3128H88.8344L88.8528 0.877226ZM49.1166 17.4416H41.3498L39.951 21.5827H34.5584L42.1596 0.877226H48.5645L56.2762 21.5827H50.4602L49.1166 17.4416ZM47.8835 13.5214L45.3068 5.20238L42.6197 13.5214H47.8835Z" fill="white"/>
<path d="M136.19 19.8709C136.19 18.8954 136.982 18.104 137.957 18.104C138.933 18.104 139.724 18.8954 139.724 19.8709C139.724 20.8463 138.933 21.6377 137.957 21.6377C136.982 21.6377 136.19 20.8463 136.19 19.8709ZM139.301 19.8709C139.301 19.0427 138.693 18.4353 137.957 18.4353C137.221 18.4353 136.613 19.0427 136.613 19.8709C136.613 20.6991 137.221 21.3065 137.957 21.3065C138.693 21.2881 139.301 20.6991 139.301 19.8709ZM137.276 18.8586H138.031C138.509 18.8586 138.767 19.0242 138.767 19.4476C138.767 19.7973 138.564 19.9629 138.233 19.9813L138.767 20.8647H138.38L137.865 19.9997H137.644V20.8647H137.276V18.8586ZM137.644 19.7052H137.975C138.196 19.7052 138.38 19.6684 138.38 19.4108C138.38 19.1715 138.16 19.1347 137.975 19.1347H137.644V19.7052Z" fill="white"/>
</svg>
