<svg width="53" height="40" viewBox="0 0 53 40" fill="none" xmlns="http://www.w3.org/2000/svg">
<g clip-path="url(#clip0)">
<path d="M47.0285 0.0126953H31.9672C30.8529 0.0126953 29.9495 0.916454 29.9495 2.03044C29.9495 2.37784 30.0258 2.70308 30.1904 2.98816L37.7503 16.0816C37.9268 16.3891 38.1812 16.6445 38.488 16.8222C38.7948 16.9999 39.143 17.0935 39.4975 17.0936C40.2455 17.0936 40.8968 16.6859 41.2452 16.0816L48.8046 2.98816C48.9696 2.70308 49.0459 2.37784 49.0459 2.03044C49.0463 0.916091 48.1438 0.0126953 47.0285 0.0126953Z" fill="white"/>
<path d="M50.1233 1.10595C50.1233 0.961075 50.1518 0.817617 50.2073 0.68378C50.2628 0.549943 50.3441 0.428352 50.4466 0.325958C50.5491 0.223564 50.6708 0.142374 50.8047 0.0870309C50.9386 0.0316875 51.0821 0.00327525 51.227 0.00341851C51.3717 0.00346622 51.515 0.0320233 51.6487 0.0874589C51.7825 0.142895 51.9039 0.224123 52.0062 0.326505C52.1085 0.428887 52.1897 0.550418 52.245 0.684157C52.3003 0.817896 52.3288 0.961223 52.3287 1.10595C52.3288 1.25071 52.3005 1.39409 52.2452 1.52788C52.1899 1.66167 52.1088 1.78325 52.0065 1.88569C51.9042 1.98813 51.7827 2.06941 51.649 2.12489C51.5153 2.18037 51.3719 2.20896 51.2272 2.20903C51.0822 2.20915 50.9387 2.18071 50.8048 2.12532C50.6708 2.06994 50.5491 1.9887 50.4466 1.88626C50.3441 1.78381 50.2628 1.66217 50.2073 1.52828C50.1518 1.39439 50.1233 1.25088 50.1233 1.10595ZM50.3508 1.10595C50.3515 1.33798 50.4441 1.56028 50.6083 1.72423C50.7725 1.88818 50.9949 1.98044 51.227 1.98082C51.4587 1.97996 51.6807 1.88749 51.8444 1.72358C52.0082 1.55968 52.1005 1.33765 52.1012 1.10595C52.1008 0.874218 52.0086 0.652081 51.8447 0.488202C51.6809 0.324322 51.4587 0.232062 51.227 0.231629C50.995 0.231821 50.7725 0.32394 50.6083 0.487815C50.444 0.651689 50.3515 0.873961 50.3508 1.10595Z" fill="#91298D"/>
<path d="M51.6413 1.65909H51.5363C51.4954 1.65909 51.4738 1.65418 51.4436 1.61875L51.1447 1.245H51.0651V1.59894C51.0651 1.644 51.0464 1.65872 51.0083 1.65872H50.9356C50.886 1.65872 50.8689 1.64891 50.8689 1.59894V0.608515C50.8689 0.554733 50.9005 0.552734 50.9356 0.552734H51.2543C51.436 0.552734 51.474 0.563454 51.5388 0.627593C51.5955 0.686826 51.623 0.789848 51.623 0.937023C51.623 1.12308 51.5481 1.2281 51.3788 1.24046L51.6626 1.57932C51.6953 1.61893 51.6895 1.65909 51.6413 1.65909ZM51.3733 0.729343C51.329 0.70754 51.1216 0.717715 51.0653 0.717715V1.08093H51.2765C51.3513 1.08093 51.3867 1.06893 51.4071 1.04332C51.4187 1.02406 51.4309 1.00352 51.4309 0.922487C51.4309 0.800205 51.4113 0.749875 51.3733 0.729343Z" fill="#91298D"/>
<path d="M23.58 18.6015C23.58 18.6033 23.5818 18.6046 23.5818 18.6053V18.6037L23.58 18.6015ZM36.8497 18.8541L36.7667 18.7105L27.418 2.51775L27.2548 2.23521C26.4621 0.861763 24.942 0.0126953 23.2535 0.0126953H15.5439C15.1309 0.0128398 14.7349 0.176936 14.4429 0.46892C14.1509 0.760903 13.9868 1.15688 13.9866 1.56984C13.9866 1.83711 14.0483 2.0933 14.1724 2.30771L23.5816 18.6053C24.0265 19.3617 24.2604 20.2235 24.2592 21.1009C24.2592 21.9845 24.0264 22.8133 23.62 23.5304L15.4385 37.7029C15.3142 37.9159 15.253 38.1724 15.253 38.4401C15.253 38.6446 15.2932 38.847 15.3715 39.0359C15.4497 39.2248 15.5644 39.3965 15.709 39.5411C15.8537 39.6856 16.0253 39.8003 16.2143 39.8785C16.4032 39.9567 16.6057 39.9969 16.8101 39.9968H24.7207C26.4085 39.9968 27.9291 39.1483 28.7218 37.7749L28.8846 37.4916L36.7519 23.8647L36.8986 23.6111C37.2996 22.9161 37.4849 22.1208 37.4849 21.2757C37.4849 20.3954 37.2591 19.5638 36.8497 18.8541Z" fill="white"/>
<path d="M15.1135 25.4362C14.9694 25.4362 14.8257 25.4955 14.694 25.5193C14.2514 25.615 13.7602 25.7117 13.2337 25.7117C12.9462 25.7117 12.6822 25.6514 12.5147 25.5796C12.1439 25.4121 12.1081 24.9451 12.1197 24.3455H15.0412C15.4604 24.3455 15.5441 24.2743 15.5441 23.6158C15.5441 22.8485 15.4727 22.0948 15.1015 21.5564C14.7543 21.0653 14.1553 20.8135 13.1617 20.8135C12.1081 20.8135 11.4487 21.0889 11.0902 21.6042C10.7183 22.1306 10.6104 22.8372 10.6104 23.8904C10.6104 25.077 10.7782 25.856 11.2817 26.3227C11.6764 26.6938 12.3238 26.8842 13.2222 26.8842C13.7364 26.8842 14.4427 26.8366 15.0287 26.7287C15.4006 26.6691 15.4602 26.4783 15.4602 26.2023C15.4602 26.0702 15.4602 25.9263 15.4371 25.8073C15.4006 25.6512 15.2929 25.4362 15.1135 25.4362ZM12.1197 23.1841C12.1197 22.3107 12.3 22.0116 13.1616 22.0116C13.9759 22.0116 14.0828 22.3221 14.0828 23.0645V23.2924H12.1197V23.1841ZM7.84112 20.8137C7.19391 20.8137 6.61957 21.0286 6.22365 21.2205V19.0054C6.22365 18.7781 6.12863 18.4897 5.75742 18.4897H5.21869C4.87165 18.4897 4.69195 18.5977 4.69195 19.0054V26.2508C4.69195 26.5375 4.78752 26.7285 5.12348 26.7285H5.75724C6.12844 26.7285 6.22347 26.525 6.22347 26.1899V23.4456C6.22347 22.5869 6.40135 22.294 7.24697 22.294C8.04752 22.294 8.15327 22.5992 8.15327 23.3275V23.5513H8.15C8.15182 23.6667 8.15291 23.7977 8.15291 23.9452V26.1896C8.15291 26.5491 8.27174 26.7281 8.58317 26.7281H9.2191C9.58886 26.7281 9.68534 26.5246 9.68534 26.1896V22.5144C9.68552 21.7351 9.31395 20.8137 7.84112 20.8137ZM3.44806 22.2496H2.15529V24.6569C2.15529 25.2195 2.17945 25.435 2.22724 25.5307C2.26303 25.5916 2.32372 25.6268 2.40639 25.6268C2.74253 25.6268 3.11228 25.4475 3.38864 25.4475C3.65228 25.4475 3.71261 25.651 3.71261 25.782V26.2132C3.71261 26.6563 3.59196 26.777 3.20931 26.8122C2.82611 26.848 2.56265 26.872 2.16673 26.872C0.896854 26.872 0.622311 26.4051 0.622311 24.98V22.25H0.287081C0.0603233 22.25 0 22.0946 0 21.9033V21.388C0 21.0882 0.119193 20.9928 0.322875 20.9928H0.622311V20.0225C0.622311 19.6157 0.789835 19.4954 1.13724 19.4954H1.67633C2.04736 19.4954 2.1551 19.7945 2.1551 20.0225V20.9928H3.32905C3.59196 20.9928 3.73605 21.0286 3.73605 21.376V21.7946C3.73623 22.2015 3.66391 22.2496 3.44806 22.2496Z" fill="white"/>
<path d="M31.6385 36.2218L32.5568 37.7754L33.4242 38.2764C33.5445 38.3463 33.569 38.4365 33.5009 38.5522L33.4026 38.7268C33.3245 38.8598 33.2531 38.8985 33.1121 38.8169L32.2766 38.3347L30.3725 38.3124C30.3192 38.3136 30.2685 38.3062 30.232 38.2849C30.1323 38.2275 30.1568 38.1178 30.1948 38.0529L30.3199 37.8358C30.3895 37.7148 30.4573 37.7004 30.5538 37.7019L31.8582 37.7282L31.1857 36.5968C31.137 36.5152 31.1196 36.4503 31.1895 36.3293L31.2924 36.1522C31.3531 36.0464 31.4368 36.0308 31.5139 36.0755C31.5622 36.1026 31.6116 36.1749 31.6385 36.2218ZM35.706 34.7349L35.608 34.9039C35.5384 35.0246 35.4525 35.0338 35.334 34.977L33.6304 34.1332C33.7013 34.2169 33.8021 34.3294 33.8806 34.4173C34.1853 34.7762 34.5166 35.1452 34.7112 35.3929C34.7893 35.4915 34.8173 35.5727 34.741 35.7045L34.6806 35.8102C34.6032 35.9434 34.5215 35.9563 34.3968 35.9376C34.0856 35.8922 33.5948 35.7979 33.1317 35.7134C33.0143 35.6941 32.8708 35.6541 32.763 35.6352L34.3447 36.6898C34.4543 36.7636 34.4888 36.8432 34.4196 36.9627L34.3213 37.133C34.2491 37.258 34.1637 37.3208 34.0213 37.2231L31.7906 35.6598C31.6525 35.564 31.6876 35.4661 31.7437 35.3687L31.8718 35.1467C31.9365 35.0342 32.0061 34.9986 32.116 35.0135C32.5741 35.0785 33.3766 35.235 33.9922 35.3425C33.5908 34.8641 33.0536 34.2471 32.7685 33.883C32.7011 33.7959 32.6973 33.7185 32.7628 33.6057L32.8906 33.3833C32.9467 33.287 33.0145 33.2072 33.166 33.2784L35.6344 34.4297C35.7901 34.5025 35.7783 34.609 35.706 34.7349ZM36.9707 32.6178C36.8824 32.7991 36.833 32.9031 36.7255 33.0891C36.6388 33.2392 36.5225 33.4138 36.4019 33.5379C35.9402 34.02 35.384 33.8655 34.6854 33.4623C33.4994 32.7771 33.4938 32.2738 33.948 31.4867C34.0562 31.3009 34.1216 31.204 34.234 31.0378C34.3416 30.8791 34.4063 30.8575 34.4971 30.91L34.63 30.9867C34.7746 31.0701 34.8087 31.123 34.7342 31.2507C34.6478 31.4012 34.5858 31.4622 34.4622 31.6762C34.387 31.8054 34.2784 32.0216 34.2646 32.149C34.2322 32.4474 34.5471 32.6394 35.0108 32.9063C35.4674 33.1703 35.8359 33.352 36.103 33.0386C36.1573 32.973 36.2309 32.8647 36.3034 32.7395C36.4269 32.5255 36.4493 32.4406 36.5345 32.2909C36.6084 32.1621 36.6711 32.1659 36.817 32.25L36.9502 32.3267C37.0392 32.3776 37.0545 32.4457 36.9707 32.6178ZM38.4512 29.9792L38.3231 30.201C38.2508 30.326 38.1698 30.3277 38.0722 30.309L37.4646 30.1961C37.3685 30.3724 37.2943 30.5012 37.191 30.6784C37.103 30.8335 37.0126 30.9873 36.9199 31.1397L37.3022 31.5769C37.3905 31.6759 37.4323 31.7433 37.3525 31.8796L37.2455 32.066C37.1659 32.2039 37.1183 32.2023 37.0583 32.1674C37.0336 32.1543 36.992 32.1134 36.9515 32.0627L35.1204 29.9025C35.021 29.785 34.9895 29.7083 35.0764 29.5593L35.1712 29.3939C35.2573 29.244 35.3404 29.232 35.4867 29.2577L38.3427 29.7444C38.3682 29.7481 38.3923 29.7519 38.414 29.7637C38.5141 29.8218 38.4884 29.9143 38.4512 29.9792ZM35.8219 29.8816L36.587 30.7554C36.641 30.6616 36.6998 30.5506 36.7672 30.4342C36.8394 30.3082 36.8926 30.2256 36.9602 30.1087L35.8219 29.8816Z" fill="white"/>
</g>
<defs>
<clipPath id="clip0">
<rect width="52.3286" height="40" fill="white"/>
</clipPath>
</defs>
</svg>
