<svg width="24" height="27" viewBox="0 0 24 27" fill="none" xmlns="http://www.w3.org/2000/svg">
<path d="M11.2943 14.4502C9.46122 14.4502 7.97461 15.9368 7.97461 17.7699C7.97461 19.603 9.46122 21.0896 11.2943 21.0896C13.1274 21.0896 14.614 19.603 14.614 17.7699C14.614 15.9368 13.1274 14.4502 11.2943 14.4502Z" fill="white"/>
<path d="M15.4267 13.8139C16.4094 14.8407 17.0141 16.2328 17.0141 17.7698C17.0141 19.7162 16.044 21.4296 14.5637 22.4627C17.3039 21.6186 19.5716 19.5588 20.5858 17.0643C21.9905 13.6123 20.6803 11.017 18.4881 8.66113C18.5574 8.96349 18.5952 9.28475 18.5952 9.60601C18.5889 11.6092 17.2535 13.2911 15.4267 13.8139Z" fill="white"/>
<path d="M11.6722 9.61231C11.6722 11.017 12.8124 12.1509 14.2108 12.1509C15.6093 12.1509 16.7557 11.0107 16.7557 9.61231C16.7557 8.20759 15.6156 7.07373 14.2171 7.07373C12.8187 7.07373 11.6722 8.20759 11.6722 9.61231Z" fill="white"/>
<path d="M6.91638 21.4548C6.07858 20.4596 5.57464 19.1745 5.57464 17.7698C5.57464 14.8407 7.77307 12.4281 10.614 12.0942C10.129 11.3887 9.83921 10.532 9.83921 9.61232C9.83921 7.19342 11.7983 5.24066 14.2172 5.24066C14.4187 5.24066 14.614 5.25326 14.803 5.27846C13.3731 4.04381 11.9431 2.79027 10.8156 1.42334C11.3888 7.42019 5.35417 5.24066 3.11795 10.7714C1.62504 14.4753 2.97307 19.0548 6.91638 21.4548Z" fill="white"/>
</svg>
